# xmcd
#
# Track frame offsets:
#	150
#	13626
#	31969
#	48434
#	63094
#	73427
#	83585
#	106100
#	122568
#	147013
#	164241
#
# Disc length: 2599 seconds
#
# Revision: 1
# Processed by: cddbd v1.5.2PL0 Copyright (c) Steve Scherf et al.
# Submitted via: EasyCDDAExtractor 11.5.3.1
#
DISCID=900a250b
DTITLE=T-Model Ford - Jack Daniel Time
DYEAR=2008
DGENRE=Blues
TTITLE0=I Love You, Babe
TTITLE1=Red's Houseparty
TTITLE2=Jack Daniel Time
TTITLE3=Big Boss Man
TTITLE4=Rock Me Baby
TTITLE5=That's Alright Mama
TTITLE6=Hi-Heel Sneakers
TTITLE7=Got A Woman
TTITLE8=Mistreatin' Woman
TTITLE9=Killing Floor
TTITLE10=I Love You, Babe (encore)
EXTD=
EXTT0=
EXTT1=
EXTT2=
EXTT3=
EXTT4=
EXTT5=
EXTT6=
EXTT7=
EXTT8=
EXTT9=
EXTT10=
PLAYORDER=
